<?xml version="1.0" encoding="utf-8"?>
<!-- Generator: Adobe Illustrator 27.5.0, SVG Export Plug-In . SVG Version: 6.00 Build 0)  -->
<svg version="1.1" id="Capa_1" xmlns="http://www.w3.org/2000/svg" xmlns:xlink="http://www.w3.org/1999/xlink" x="0px" y="0px"
	 viewBox="0 0 300 90" style="enable-background:new 0 0 300 90;" xml:space="preserve">
<style type="text/css">
	.st0{fill:#FFFFFF;}
	.st1{fill:none;stroke:#FFFFFF;stroke-width:1.5624;stroke-linecap:round;stroke-linejoin:round;}
	.st2{fill:none;stroke:#FFFFFF;stroke-width:0.7812;stroke-linecap:round;stroke-linejoin:round;}
</style>
<g>
	<g>
		<path class="st0" d="M90.9,46.9H95v17h-4.2V46.9z"/>
		<path class="st0" d="M97.8,46.9h4.1v11.9c0,1.2,0.2,1.6,1.1,1.6c0.3,0,0.5,0,0.5,0v3.6c0,0-0.6,0.1-1.2,0.1
			c-2.2,0-4.5-0.5-4.5-4.6V46.9z"/>
		<path class="st0" d="M104.9,51.6h4.1v7.2c0,1.1,0.5,1.6,1.3,1.6c1.8,0,2.6-1.5,2.6-3.4v-5.4h4.1v12.2H113v-1.1c0-0.4,0-0.8,0-0.8
			h0c-0.7,1.3-2.2,2.1-3.8,2.1c-2.4,0-4.3-1.1-4.3-4.6V51.6z"/>
		<path class="st0" d="M119.4,51.6h3.9v1.1c0,0.4,0,0.8,0,0.8h0c0.6-0.9,1.7-2.1,3.6-2.1c1.5,0,2.8,0.7,3.4,2.1h0
			c0.6-1,2.1-2.1,3.9-2.1c2.2,0,4,1.2,4,4.6v7.9h-4.1v-7.2c0-0.9-0.2-1.5-1-1.5c-1.3,0-2,1-2.3,2.3c-0.1,0.4-0.1,0.9-0.1,1.4v5.1
			h-4.1v-7.2c0-0.9-0.2-1.5-1-1.5c-1.3,0-1.9,0.9-2.2,2.2c-0.1,0.5-0.1,1-0.1,1.5v5.1h-4.1V51.6z"/>
		<path class="st0" d="M140.7,51.6h4.1v12.2h-4.1V51.6z M140.7,46.9h4v3.2h-4V46.9z"/>
		<path class="st0" d="M147.2,51.6h3.9v1.1c0,0.4,0,0.8,0,0.8h0c0.6-1,1.7-2.1,3.9-2.1c2.5,0,4.4,1.1,4.4,4.6v7.9h-4.1v-7.2
			c0-1.1-0.5-1.6-1.4-1.6c-1.3,0-2.1,0.7-2.4,1.8c-0.2,0.5-0.2,1-0.2,1.6v5.4h-4.1V51.6z"/>
		<path class="st0" d="M170.7,60.3h-5.3l-1,3.6h-4.3l5.8-17h4.4l5.8,17h-4.3L170.7,60.3z M168.1,50.7c0,0-0.4,1.9-0.7,2.9l-1,3.3
			h3.4l-1-3.3C168.5,52.6,168.1,50.7,168.1,50.7L168.1,50.7z"/>
		<path class="st0" d="M182.8,51.3c3.3,0,4.9,1.9,4.9,1.9l-1.7,2.8c0,0-1.2-1.2-2.9-1.2c-1.9,0-2.9,1.5-2.9,2.9c0,1.5,1,3,3.1,3
			c1.7,0,3.4-1.5,3.4-1.5l1.5,2.9c0,0-1.8,2-5.3,2c-4.4,0-6.8-3-6.8-6.4C176,54.5,178.4,51.3,182.8,51.3z"/>
		<path class="st0" d="M195.4,51.3c3.9,0,7,2.6,7,6.4c0,3.8-3.1,6.4-6.9,6.4s-6.9-2.5-6.9-6.4C188.5,53.9,191.6,51.3,195.4,51.3z
			 M195.4,60.7c1.5,0,2.8-1.1,2.8-2.9c0-1.9-1.3-3-2.8-3s-2.8,1.2-2.8,3C192.6,59.6,193.9,60.7,195.4,60.7z"/>
		<path class="st0" d="M203.9,51.6h3.9v1.1c0,0.4,0,0.8,0,0.8h0c0.6-1,1.7-2.1,3.9-2.1c2.5,0,4.4,1.1,4.4,4.6v7.9H212v-7.2
			c0-1.1-0.5-1.6-1.4-1.6c-1.3,0-2.1,0.7-2.4,1.8c-0.2,0.5-0.2,1-0.2,1.6v5.4h-4.1V51.6z"/>
		<path class="st0" d="M226.6,46.6c4.2,0,6.4,2.4,6.4,2.4l-1.9,3.1c0,0-1.9-1.7-4.3-1.7c-3.3,0-4.8,2.4-4.8,4.8
			c0,2.5,1.7,5.1,4.8,5.1c2.6,0,4.5-2.1,4.5-2.1l2.1,3c0,0-2.4,2.9-6.8,2.9c-5.3,0-8.9-3.8-8.9-8.8
			C217.7,50.4,221.5,46.6,226.6,46.6z"/>
		<path class="st0" d="M234.9,51.6h4.1v12.2h-4.1V51.6z M235,46.9h4v3.2h-4V46.9z"/>
		<path class="st0" d="M247,51.3c3.6,0,5.7,2.5,5.7,5.9c0,0.4-0.1,1.3-0.1,1.3h-7.7c0.3,1.5,1.5,2.2,2.9,2.2c1.8,0,3.4-1.2,3.4-1.2
			l1.5,2.9c0,0-2,1.8-5.2,1.8c-4.4,0-6.7-3.2-6.7-6.4C240.6,54.1,243,51.3,247,51.3z M248.5,56.2c0-0.9-0.6-1.8-1.6-1.8
			c-1.2,0-1.8,0.9-2,1.8H248.5z"/>
		<path class="st0" d="M254.3,51.6h3.9v1.1c0,0.4,0,0.8,0,0.8h0c0.6-1,1.7-2.1,3.9-2.1c2.5,0,4.4,1.1,4.4,4.6v7.9h-4.1v-7.2
			c0-1.1-0.5-1.6-1.4-1.6c-1.3,0-2.1,0.7-2.4,1.8c-0.2,0.5-0.2,1-0.2,1.6v5.4h-4.1V51.6z"/>
		<path class="st0" d="M274.7,51.3c3.3,0,4.9,1.9,4.9,1.9l-1.7,2.8c0,0-1.2-1.2-2.9-1.2c-1.9,0-2.9,1.5-2.9,2.9c0,1.5,1,3,3.1,3
			c1.7,0,3.4-1.5,3.4-1.5l1.5,2.9c0,0-1.8,2-5.3,2c-4.4,0-6.8-3-6.8-6.4C267.9,54.5,270.3,51.3,274.7,51.3z"/>
		<path class="st0" d="M281.3,51.6h4.1v12.2h-4.1V51.6z M281.4,46.9h4v3.2h-4V46.9z"/>
		<path class="st0" d="M294.1,56.2h0.2V56c0-1-0.8-1.4-1.8-1.4c-1.5,0-3.3,1.2-3.3,1.2l-1.4-2.9c0,0,2.1-1.6,5.1-1.6
			c3.4,0,5.5,1.9,5.5,5v7.5h-3.8v-0.7c0-0.4,0-0.8,0-0.8h0c0,0-0.9,1.8-3.5,1.8c-2.3,0-4.2-1.5-4.2-3.9
			C286.9,56.6,292.2,56.2,294.1,56.2z M292.2,61c1.1,0,2-1.2,2-2.2v-0.3h-0.4c-1.3,0-2.8,0.4-2.8,1.4C291.1,60.6,291.4,61,292.2,61z
			"/>
	</g>
</g>
<g>
	<circle class="st1" cx="35.2" cy="54.6" r="19.2"/>
	<polygon class="st2" points="55.7,34.1 55.3,36.5 56.4,38.6 54,38.9 52.4,40.6 51.3,38.5 49.2,37.4 50.9,35.8 51.2,33.4 53.3,34.5 
			"/>
	<polygon class="st2" points="71.6,18.2 71.2,20.5 72.3,22.7 69.9,23 68.3,24.7 67.3,22.5 65.1,21.5 66.8,19.9 67.1,17.5 69.3,18.6 
			"/>
	<polygon class="st2" points="58.8,18.2 58.4,20.5 59.5,22.7 57.1,23 55.5,24.7 54.4,22.5 52.3,21.5 54,19.9 54.3,17.5 56.4,18.6 	
		"/>
	<polygon class="st2" points="64.1,30.4 63.9,31.5 64.4,32.4 63.3,32.6 62.5,33.4 62.1,32.4 61.1,31.9 61.9,31.1 62,30 63,30.6 	"/>
	<polygon class="st2" points="70.9,31.7 70.6,33.4 71.5,34.9 69.7,35.1 68.5,36.4 67.8,34.8 66.2,34.1 67.5,32.9 67.7,31.1 69.2,32 
			"/>
	<path class="st0" d="M4.6,3.7c0.2,0,0.5,0.1,0.6,0.4c1.9,4.9,4.2,9.7,6.7,14.4l0,0c8-7.3,18.1-10.9,28.2-10.9
		c9.1,0,18.2,2.9,25.8,8.8c0,0,0,0,0,0l0,0c0,0,0,0,0,0c0.1-0.2,0.3-0.3,0.5-0.4c0.2-0.1,0.5-0.2,0.7-0.2c0.3,0,0.5,0.1,0.8,0.2
		l1.6,0.9l1.8-0.3c0.1,0,0.2,0,0.3,0c0.4,0,0.9,0.2,1.2,0.5c0.4,0.4,0.6,0.9,0.5,1.5l-0.3,1.8l0.9,1.6c0.3,0.5,0.3,1.1,0,1.5
		c-0.1,0.2-0.3,0.4-0.4,0.5c0,0,0,0,0,0l0,0c0,0,0,0,0,0c12.4,16,11.7,38.8-2.1,54c0,0,0,0,0,0l0,0c0,0,0,0,0,0
		c4.7,2.5,9.5,4.7,14.3,6.7c0.7,0.3,0.4,1.2-0.2,1.2c-0.1,0-0.1,0-0.2,0c-19-4.4-37.2-14.1-52.1-29.1C18.2,41.7,8.5,23.5,4,4.5
		C3.9,4,4.3,3.7,4.6,3.7 M4.6,2.2C4,2.2,3.3,2.5,2.9,3C2.5,3.5,2.3,4.2,2.5,4.8c4.6,20,14.9,38.3,29.5,52.9
		c14.6,14.6,32.9,24.8,52.9,29.5c0.2,0,0.3,0.1,0.5,0.1c1,0,1.9-0.7,2.1-1.8c0.2-1-0.4-2-1.3-2.4c-4.2-1.7-8.4-3.6-12.4-5.7
		C86.5,62.1,87.2,40,75.3,23.9c0.4-0.9,0.3-1.9-0.1-2.8L74.5,20l0.2-1.2c0.2-1-0.1-2.1-0.9-2.9c-0.6-0.6-1.4-0.9-2.3-0.9
		c-0.2,0-0.4,0-0.6,0.1l-1.2,0.2l-1.1-0.6c-0.5-0.3-1-0.4-1.5-0.4c-0.4,0-0.8,0.1-1.2,0.2C58.5,9,49.4,6.1,40.1,6.1
		c-10.2,0-20,3.5-27.8,10c-2.1-4-4-8.2-5.7-12.5C6.3,2.7,5.5,2.2,4.6,2.2L4.6,2.2z"/>
</g>
</svg>
